<mxfile host="65bd71144e">
    <diagram id="wpg1tlkm0xuK95lDecw3" name="Page-1">
        <mxGraphModel dx="2350" dy="816" grid="1" gridSize="10" guides="1" tooltips="1" connect="1" arrows="1" fold="1" page="1" pageScale="1" pageWidth="850" pageHeight="1100" math="0" shadow="0">
            <root>
                <mxCell id="0"/>
                <mxCell id="1" parent="0"/>
                <mxCell id="3" value="user" style="shape=umlActor;verticalLabelPosition=bottom;verticalAlign=top;html=1;outlineConnect=0;" parent="1" vertex="1">
                    <mxGeometry x="40" y="190" width="30" height="60" as="geometry"/>
                </mxCell>
                <mxCell id="13" value="enters the salary and all the inputs" style="rounded=1;whiteSpace=wrap;html=1;" parent="1" vertex="1">
                    <mxGeometry x="110" y="190" width="120" height="60" as="geometry"/>
                </mxCell>
                <mxCell id="16" value="" style="endArrow=classic;html=1;entryX=0;entryY=0.5;entryDx=0;entryDy=0;" parent="1" target="13" edge="1">
                    <mxGeometry relative="1" as="geometry">
                        <mxPoint x="50" y="220" as="sourcePoint"/>
                        <mxPoint x="160" y="220" as="targetPoint"/>
                    </mxGeometry>
                </mxCell>
                <mxCell id="19" value="" style="endArrow=classic;html=1;" parent="1" edge="1">
                    <mxGeometry relative="1" as="geometry">
                        <mxPoint x="280" y="219.5" as="sourcePoint"/>
                        <mxPoint x="290" y="220" as="targetPoint"/>
                        <Array as="points">
                            <mxPoint x="230" y="220"/>
                        </Array>
                    </mxGeometry>
                </mxCell>
                <mxCell id="18" value="this is wat&amp;nbsp; react will do" style="rounded=1;whiteSpace=wrap;html=1;" parent="1" vertex="1">
                    <mxGeometry x="490" y="190" width="120" height="60" as="geometry"/>
                </mxCell>
                <mxCell id="30" value="storage" style="swimlane;startSize=20;horizontal=0;childLayout=treeLayout;horizontalTree=1;sortEdges=1;resizable=0;containerType=tree;fontSize=12;" parent="1" vertex="1">
                    <mxGeometry x="25" y="340" width="800" height="170" as="geometry"/>
                </mxCell>
                <mxCell id="31" value="take the income" style="whiteSpace=wrap;html=1;" parent="30" vertex="1">
                    <mxGeometry x="40" y="60" width="100" height="40" as="geometry"/>
                </mxCell>
                <mxCell id="32" value="go to the first column" style="whiteSpace=wrap;html=1;" parent="30" vertex="1">
                    <mxGeometry x="190" y="20" width="110" height="40" as="geometry"/>
                </mxCell>
                <mxCell id="33" value="" style="edgeStyle=elbowEdgeStyle;elbow=horizontal;html=1;rounded=1;curved=0;sourcePerimeterSpacing=0;targetPerimeterSpacing=0;startSize=6;endSize=6;" parent="30" source="31" target="32" edge="1">
                    <mxGeometry relative="1" as="geometry"/>
                </mxCell>
                <mxCell id="34" value="go to the other columns&amp;nbsp;" style="whiteSpace=wrap;html=1;" parent="30" vertex="1">
                    <mxGeometry x="190" y="100" width="100" height="40" as="geometry"/>
                </mxCell>
                <mxCell id="35" value="" style="edgeStyle=elbowEdgeStyle;elbow=horizontal;html=1;rounded=1;curved=0;sourcePerimeterSpacing=0;targetPerimeterSpacing=0;startSize=6;endSize=6;" parent="30" source="31" target="34" edge="1">
                    <mxGeometry relative="1" as="geometry"/>
                </mxCell>
                <mxCell id="41" value="" style="edgeStyle=elbowEdgeStyle;elbow=horizontal;html=1;rounded=1;curved=0;sourcePerimeterSpacing=0;targetPerimeterSpacing=0;startSize=6;endSize=6;" parent="30" source="32" target="42" edge="1">
                    <mxGeometry relative="1" as="geometry">
                        <mxPoint x="180" y="370" as="sourcePoint"/>
                    </mxGeometry>
                </mxCell>
                <mxCell id="42" value="take the value" style="whiteSpace=wrap;html=1;" parent="30" vertex="1">
                    <mxGeometry x="350" y="20" width="110" height="40" as="geometry"/>
                </mxCell>
                <mxCell id="48" value="" style="edgeStyle=elbowEdgeStyle;elbow=horizontal;html=1;rounded=1;curved=0;sourcePerimeterSpacing=0;targetPerimeterSpacing=0;startSize=6;endSize=6;" parent="30" source="42" target="49" edge="1">
                    <mxGeometry relative="1" as="geometry">
                        <mxPoint x="330" y="390" as="sourcePoint"/>
                    </mxGeometry>
                </mxCell>
                <mxCell id="49" value="convert to json" style="whiteSpace=wrap;html=1;" parent="30" vertex="1">
                    <mxGeometry x="510" y="20" width="110" height="40" as="geometry"/>
                </mxCell>
                <mxCell id="50" value="" style="edgeStyle=elbowEdgeStyle;elbow=horizontal;html=1;rounded=1;curved=0;sourcePerimeterSpacing=0;targetPerimeterSpacing=0;startSize=6;endSize=6;" parent="30" source="49" target="51" edge="1">
                    <mxGeometry relative="1" as="geometry">
                        <mxPoint x="490" y="390" as="sourcePoint"/>
                    </mxGeometry>
                </mxCell>
                <mxCell id="51" value="store to local storage" style="whiteSpace=wrap;html=1;" parent="30" vertex="1">
                    <mxGeometry x="670" y="20" width="110" height="40" as="geometry"/>
                </mxCell>
                <mxCell id="55" value="" style="edgeStyle=segmentEdgeStyle;endArrow=classic;html=1;curved=0;rounded=0;endSize=8;startSize=8;" parent="30" edge="1">
                    <mxGeometry width="50" height="50" relative="1" as="geometry">
                        <mxPoint x="290" y="120" as="sourcePoint"/>
                        <mxPoint x="310" y="40" as="targetPoint"/>
                    </mxGeometry>
                </mxCell>
                <mxCell id="75" value="store in fire base" style="rounded=1;whiteSpace=wrap;html=1;" parent="30" vertex="1">
                    <mxGeometry x="525" y="110" width="120" height="40" as="geometry"/>
                </mxCell>
                <mxCell id="79" value="or" style="rhombus;whiteSpace=wrap;html=1;" parent="30" vertex="1">
                    <mxGeometry x="535" y="60" width="80" height="50" as="geometry"/>
                </mxCell>
                <mxCell id="36" value="" style="edgeStyle=elbowEdgeStyle;elbow=vertical;endArrow=classic;html=1;curved=0;rounded=0;endSize=8;startSize=8;exitX=0.6;exitY=1.07;exitDx=0;exitDy=0;exitPerimeter=0;" parent="1" source="18" edge="1">
                    <mxGeometry width="50" height="50" relative="1" as="geometry">
                        <mxPoint x="510" y="310" as="sourcePoint"/>
                        <mxPoint x="280" y="342" as="targetPoint"/>
                    </mxGeometry>
                </mxCell>
                <mxCell id="45" value="clicks save" style="rounded=1;whiteSpace=wrap;html=1;" parent="1" vertex="1">
                    <mxGeometry x="290" y="190" width="120" height="60" as="geometry"/>
                </mxCell>
                <mxCell id="46" value="" style="endArrow=classic;html=1;" parent="1" edge="1">
                    <mxGeometry relative="1" as="geometry">
                        <mxPoint x="410" y="219.5" as="sourcePoint"/>
                        <mxPoint x="490" y="220" as="targetPoint"/>
                        <Array as="points">
                            <mxPoint x="470" y="220"/>
                        </Array>
                    </mxGeometry>
                </mxCell>
                <mxCell id="56" value="storage" style="swimlane;startSize=20;horizontal=0;childLayout=treeLayout;horizontalTree=1;sortEdges=1;resizable=0;containerType=tree;fontSize=12;" parent="1" vertex="1">
                    <mxGeometry x="40" y="600" width="800" height="170" as="geometry"/>
                </mxCell>
                <mxCell id="57" value="go to the overflow table" style="whiteSpace=wrap;html=1;" parent="56" vertex="1">
                    <mxGeometry x="40" y="60" width="100" height="40" as="geometry"/>
                </mxCell>
                <mxCell id="58" value="go to the first column" style="whiteSpace=wrap;html=1;" parent="56" vertex="1">
                    <mxGeometry x="190" y="20" width="110" height="40" as="geometry"/>
                </mxCell>
                <mxCell id="59" value="" style="edgeStyle=elbowEdgeStyle;elbow=horizontal;html=1;rounded=1;curved=0;sourcePerimeterSpacing=0;targetPerimeterSpacing=0;startSize=6;endSize=6;" parent="56" source="57" target="58" edge="1">
                    <mxGeometry relative="1" as="geometry"/>
                </mxCell>
                <mxCell id="60" value="go to the other columns&amp;nbsp;" style="whiteSpace=wrap;html=1;" parent="56" vertex="1">
                    <mxGeometry x="190" y="100" width="100" height="40" as="geometry"/>
                </mxCell>
                <mxCell id="61" value="" style="edgeStyle=elbowEdgeStyle;elbow=horizontal;html=1;rounded=1;curved=0;sourcePerimeterSpacing=0;targetPerimeterSpacing=0;startSize=6;endSize=6;" parent="56" source="57" target="60" edge="1">
                    <mxGeometry relative="1" as="geometry"/>
                </mxCell>
                <mxCell id="62" value="" style="edgeStyle=elbowEdgeStyle;elbow=horizontal;html=1;rounded=1;curved=0;sourcePerimeterSpacing=0;targetPerimeterSpacing=0;startSize=6;endSize=6;" parent="56" source="58" target="63" edge="1">
                    <mxGeometry relative="1" as="geometry">
                        <mxPoint x="180" y="370" as="sourcePoint"/>
                    </mxGeometry>
                </mxCell>
                <mxCell id="63" value="take the value" style="whiteSpace=wrap;html=1;" parent="56" vertex="1">
                    <mxGeometry x="350" y="20" width="110" height="40" as="geometry"/>
                </mxCell>
                <mxCell id="64" value="" style="edgeStyle=elbowEdgeStyle;elbow=horizontal;html=1;rounded=1;curved=0;sourcePerimeterSpacing=0;targetPerimeterSpacing=0;startSize=6;endSize=6;" parent="56" source="63" target="65" edge="1">
                    <mxGeometry relative="1" as="geometry">
                        <mxPoint x="330" y="390" as="sourcePoint"/>
                    </mxGeometry>
                </mxCell>
                <mxCell id="65" value="convert to json" style="whiteSpace=wrap;html=1;" parent="56" vertex="1">
                    <mxGeometry x="510" y="20" width="110" height="40" as="geometry"/>
                </mxCell>
                <mxCell id="66" value="" style="edgeStyle=elbowEdgeStyle;elbow=horizontal;html=1;rounded=1;curved=0;sourcePerimeterSpacing=0;targetPerimeterSpacing=0;startSize=6;endSize=6;" parent="56" source="65" target="67" edge="1">
                    <mxGeometry relative="1" as="geometry">
                        <mxPoint x="490" y="390" as="sourcePoint"/>
                    </mxGeometry>
                </mxCell>
                <mxCell id="67" value="store to local storage" style="whiteSpace=wrap;html=1;" parent="56" vertex="1">
                    <mxGeometry x="670" y="20" width="110" height="40" as="geometry"/>
                </mxCell>
                <mxCell id="68" value="" style="edgeStyle=segmentEdgeStyle;endArrow=classic;html=1;curved=0;rounded=0;endSize=8;startSize=8;" parent="56" edge="1">
                    <mxGeometry width="50" height="50" relative="1" as="geometry">
                        <mxPoint x="290" y="120" as="sourcePoint"/>
                        <mxPoint x="310" y="40" as="targetPoint"/>
                    </mxGeometry>
                </mxCell>
                <mxCell id="80" value="or" style="rhombus;whiteSpace=wrap;html=1;" parent="56" vertex="1">
                    <mxGeometry x="520" y="60" width="80" height="50" as="geometry"/>
                </mxCell>
                <mxCell id="81" value="store in fire base" style="rounded=1;whiteSpace=wrap;html=1;" parent="56" vertex="1">
                    <mxGeometry x="510" y="110" width="120" height="40" as="geometry"/>
                </mxCell>
                <mxCell id="69" value="" style="shape=singleArrow;direction=south;whiteSpace=wrap;html=1;fillColor=#6d8764;fontColor=#ffffff;strokeColor=#3A5431;" parent="1" vertex="1">
                    <mxGeometry x="425" y="510" width="60" height="90" as="geometry"/>
                </mxCell>
                <mxCell id="82" value="loading data to cart and displaying" style="swimlane;startSize=20;horizontal=1;childLayout=flowLayout;flowOrientation=north;resizable=0;interRankCellSpacing=50;containerType=tree;fontSize=12;" parent="1" vertex="1">
                    <mxGeometry x="-220" y="1670" width="1570" height="450" as="geometry"/>
                </mxCell>
                <mxCell id="83" value="click the load data" style="whiteSpace=wrap;html=1;" parent="82" vertex="1">
                    <mxGeometry x="735" y="40" width="100" height="40" as="geometry"/>
                </mxCell>
                <mxCell id="84" value="the date saved is displayed" style="whiteSpace=wrap;html=1;" parent="82" vertex="1">
                    <mxGeometry x="735" y="131.5" width="100" height="40" as="geometry"/>
                </mxCell>
                <mxCell id="85" value="" style="html=1;rounded=1;curved=0;sourcePerimeterSpacing=0;targetPerimeterSpacing=0;startSize=6;endSize=6;noEdgeStyle=1;orthogonal=1;" parent="82" source="83" target="84" edge="1">
                    <mxGeometry relative="1" as="geometry">
                        <Array as="points">
                            <mxPoint x="785" y="94"/>
                            <mxPoint x="785" y="118"/>
                        </Array>
                    </mxGeometry>
                </mxCell>
                <mxCell id="86" value="the montth is dispalyed" style="whiteSpace=wrap;html=1;" parent="82" vertex="1">
                    <mxGeometry x="865" y="131.5" width="100" height="40" as="geometry"/>
                </mxCell>
                <mxCell id="87" value="" style="html=1;rounded=1;curved=0;sourcePerimeterSpacing=0;targetPerimeterSpacing=0;startSize=6;endSize=6;noEdgeStyle=1;orthogonal=1;" parent="82" source="83" target="86" edge="1">
                    <mxGeometry relative="1" as="geometry">
                        <Array as="points">
                            <mxPoint x="815" y="92"/>
                            <mxPoint x="915" y="118"/>
                        </Array>
                    </mxGeometry>
                </mxCell>
                <mxCell id="93" value="" style="edgeStyle=none;html=1;noEdgeStyle=1;orthogonal=1;" parent="82" source="83" target="94" edge="1">
                    <mxGeometry relative="1" as="geometry">
                        <Array as="points">
                            <mxPoint x="755" y="92"/>
                            <mxPoint x="655" y="118"/>
                        </Array>
                    </mxGeometry>
                </mxCell>
                <mxCell id="94" value="the input table will be saved and will display" style="whiteSpace=wrap;html=1;" parent="82" vertex="1">
                    <mxGeometry x="605" y="131.5" width="100" height="40" as="geometry"/>
                </mxCell>
                <mxCell id="101" value="" style="edgeStyle=none;html=1;noEdgeStyle=1;orthogonal=1;" parent="82" source="94" target="102" edge="1">
                    <mxGeometry relative="1" as="geometry">
                        <mxPoint x="1580" y="3080" as="sourcePoint"/>
                        <Array as="points">
                            <mxPoint x="655" y="185"/>
                            <mxPoint x="751.46" y="211"/>
                        </Array>
                    </mxGeometry>
                </mxCell>
                <mxCell id="102" value="to be displayed" style="whiteSpace=wrap;html=1;" parent="82" vertex="1">
                    <mxGeometry x="706.97" y="223" width="88.98" height="27" as="geometry"/>
                </mxCell>
                <mxCell id="103" value="" style="edgeStyle=none;html=1;noEdgeStyle=1;orthogonal=1;" parent="82" source="102" target="104" edge="1">
                    <mxGeometry relative="1" as="geometry">
                        <mxPoint x="1640" y="3092" as="sourcePoint"/>
                        <Array as="points">
                            <mxPoint x="761.3325" y="264"/>
                            <mxPoint x="922.865" y="288"/>
                        </Array>
                    </mxGeometry>
                </mxCell>
                <mxCell id="104" value="expenses" style="whiteSpace=wrap;html=1;" parent="82" vertex="1">
                    <mxGeometry x="872.865" y="300" width="100" height="40" as="geometry"/>
                </mxCell>
                <mxCell id="115" value="" style="edgeStyle=none;html=1;noEdgeStyle=1;orthogonal=1;" parent="82" source="104" target="116" edge="1">
                    <mxGeometry relative="1" as="geometry">
                        <mxPoint x="1351" y="2970" as="sourcePoint"/>
                        <Array as="points">
                            <mxPoint x="892.865" y="352"/>
                            <mxPoint x="850" y="378"/>
                        </Array>
                    </mxGeometry>
                </mxCell>
                <mxCell id="116" value="actual" style="whiteSpace=wrap;html=1;" parent="82" vertex="1">
                    <mxGeometry x="800" y="390" width="100" height="40" as="geometry"/>
                </mxCell>
                <mxCell id="117" value="" style="edgeStyle=none;html=1;noEdgeStyle=1;orthogonal=1;" parent="82" source="102" target="118" edge="1">
                    <mxGeometry relative="1" as="geometry">
                        <mxPoint x="1331" y="2930" as="sourcePoint"/>
                        <Array as="points">
                            <mxPoint x="741.5875" y="264"/>
                            <mxPoint x="630.365" y="288"/>
                        </Array>
                    </mxGeometry>
                </mxCell>
                <mxCell id="118" value="bills" style="whiteSpace=wrap;html=1;" parent="82" vertex="1">
                    <mxGeometry x="580.365" y="300" width="100" height="40" as="geometry"/>
                </mxCell>
                <mxCell id="119" value="" style="edgeStyle=none;html=1;noEdgeStyle=1;orthogonal=1;" parent="82" source="102" target="120" edge="1">
                    <mxGeometry relative="1" as="geometry">
                        <mxPoint x="1310" y="2850" as="sourcePoint"/>
                        <Array as="points">
                            <mxPoint x="721.8425" y="262"/>
                            <mxPoint x="337.865" y="288"/>
                        </Array>
                    </mxGeometry>
                </mxCell>
                <mxCell id="120" value="income" style="whiteSpace=wrap;html=1;" parent="82" vertex="1">
                    <mxGeometry x="287.865" y="300" width="100" height="40" as="geometry"/>
                </mxCell>
                <mxCell id="121" value="" style="edgeStyle=none;html=1;noEdgeStyle=1;orthogonal=1;" parent="82" source="102" target="122" edge="1">
                    <mxGeometry relative="1" as="geometry">
                        <mxPoint x="1305" y="2730" as="sourcePoint"/>
                        <Array as="points">
                            <mxPoint x="781.0775" y="262"/>
                            <mxPoint x="1215.365" y="288"/>
                        </Array>
                    </mxGeometry>
                </mxCell>
                <mxCell id="122" value="savings" style="whiteSpace=wrap;html=1;" parent="82" vertex="1">
                    <mxGeometry x="1165.365" y="300" width="100" height="40" as="geometry"/>
                </mxCell>
                <mxCell id="123" value="" style="edgeStyle=none;html=1;noEdgeStyle=1;orthogonal=1;" parent="82" source="120" target="124" edge="1">
                    <mxGeometry relative="1" as="geometry">
                        <mxPoint x="1179" y="2500" as="sourcePoint"/>
                        <Array as="points">
                            <mxPoint x="307.865" y="352"/>
                            <mxPoint x="70" y="378"/>
                        </Array>
                    </mxGeometry>
                </mxCell>
                <mxCell id="124" value="actual" style="whiteSpace=wrap;html=1;" parent="82" vertex="1">
                    <mxGeometry x="20" y="390" width="100" height="40" as="geometry"/>
                </mxCell>
                <mxCell id="125" value="" style="edgeStyle=none;html=1;noEdgeStyle=1;orthogonal=1;" parent="82" source="118" target="126" edge="1">
                    <mxGeometry relative="1" as="geometry">
                        <mxPoint x="1159" y="2420" as="sourcePoint"/>
                        <Array as="points">
                            <mxPoint x="600.365" y="352"/>
                            <mxPoint x="460" y="378"/>
                        </Array>
                    </mxGeometry>
                </mxCell>
                <mxCell id="126" value="actual" style="whiteSpace=wrap;html=1;" parent="82" vertex="1">
                    <mxGeometry x="410" y="390" width="100" height="40" as="geometry"/>
                </mxCell>
                <mxCell id="127" value="" style="edgeStyle=none;html=1;noEdgeStyle=1;orthogonal=1;" parent="82" source="122" target="128" edge="1">
                    <mxGeometry relative="1" as="geometry">
                        <mxPoint x="1139" y="2300" as="sourcePoint"/>
                        <Array as="points">
                            <mxPoint x="1185.365" y="352"/>
                            <mxPoint x="1240" y="378"/>
                        </Array>
                    </mxGeometry>
                </mxCell>
                <mxCell id="128" value="actual" style="whiteSpace=wrap;html=1;" parent="82" vertex="1">
                    <mxGeometry x="1190" y="390" width="100" height="40" as="geometry"/>
                </mxCell>
                <mxCell id="LhFVCq_YZiJixjiF2FCT-196" value="" style="edgeStyle=none;html=1;noEdgeStyle=1;orthogonal=1;" parent="82" source="120" target="LhFVCq_YZiJixjiF2FCT-197" edge="1">
                    <mxGeometry relative="1" as="geometry">
                        <mxPoint x="570" y="2700" as="sourcePoint"/>
                        <Array as="points">
                            <mxPoint x="337.865" y="354"/>
                            <mxPoint x="200" y="378"/>
                        </Array>
                    </mxGeometry>
                </mxCell>
                <mxCell id="LhFVCq_YZiJixjiF2FCT-197" value="budget" style="whiteSpace=wrap;html=1;" parent="82" vertex="1">
                    <mxGeometry x="150" y="390" width="100" height="40" as="geometry"/>
                </mxCell>
                <mxCell id="LhFVCq_YZiJixjiF2FCT-198" value="" style="edgeStyle=none;html=1;noEdgeStyle=1;orthogonal=1;" parent="82" source="120" target="LhFVCq_YZiJixjiF2FCT-199" edge="1">
                    <mxGeometry relative="1" as="geometry">
                        <mxPoint x="638" y="2660" as="sourcePoint"/>
                        <Array as="points">
                            <mxPoint x="367.865" y="352"/>
                            <mxPoint x="330" y="378"/>
                        </Array>
                    </mxGeometry>
                </mxCell>
                <mxCell id="LhFVCq_YZiJixjiF2FCT-199" value="total income" style="whiteSpace=wrap;html=1;" parent="82" vertex="1">
                    <mxGeometry x="280" y="390" width="100" height="40" as="geometry"/>
                </mxCell>
                <mxCell id="LhFVCq_YZiJixjiF2FCT-200" value="" style="edgeStyle=none;html=1;noEdgeStyle=1;orthogonal=1;" parent="82" source="118" target="LhFVCq_YZiJixjiF2FCT-201" edge="1">
                    <mxGeometry relative="1" as="geometry">
                        <mxPoint x="750" y="2540" as="sourcePoint"/>
                        <Array as="points">
                            <mxPoint x="630.365" y="354"/>
                            <mxPoint x="590" y="378"/>
                        </Array>
                    </mxGeometry>
                </mxCell>
                <mxCell id="LhFVCq_YZiJixjiF2FCT-201" value="budget" style="whiteSpace=wrap;html=1;" parent="82" vertex="1">
                    <mxGeometry x="540" y="390" width="100" height="40" as="geometry"/>
                </mxCell>
                <mxCell id="LhFVCq_YZiJixjiF2FCT-202" value="" style="edgeStyle=none;html=1;noEdgeStyle=1;orthogonal=1;" parent="82" source="118" target="LhFVCq_YZiJixjiF2FCT-203" edge="1">
                    <mxGeometry relative="1" as="geometry">
                        <mxPoint x="818" y="2500" as="sourcePoint"/>
                        <Array as="points">
                            <mxPoint x="660.365" y="352"/>
                            <mxPoint x="720" y="378"/>
                        </Array>
                    </mxGeometry>
                </mxCell>
                <mxCell id="LhFVCq_YZiJixjiF2FCT-203" value="total bills" style="whiteSpace=wrap;html=1;" parent="82" vertex="1">
                    <mxGeometry x="670" y="390" width="100" height="40" as="geometry"/>
                </mxCell>
                <mxCell id="LhFVCq_YZiJixjiF2FCT-204" value="" style="edgeStyle=none;html=1;noEdgeStyle=1;orthogonal=1;" parent="82" source="104" target="LhFVCq_YZiJixjiF2FCT-205" edge="1">
                    <mxGeometry relative="1" as="geometry">
                        <mxPoint x="1003" y="2460" as="sourcePoint"/>
                        <Array as="points">
                            <mxPoint x="922.865" y="354"/>
                            <mxPoint x="980" y="378"/>
                        </Array>
                    </mxGeometry>
                </mxCell>
                <mxCell id="LhFVCq_YZiJixjiF2FCT-205" value="budget" style="whiteSpace=wrap;html=1;" parent="82" vertex="1">
                    <mxGeometry x="930" y="390" width="100" height="40" as="geometry"/>
                </mxCell>
                <mxCell id="LhFVCq_YZiJixjiF2FCT-206" value="" style="edgeStyle=none;html=1;noEdgeStyle=1;orthogonal=1;" parent="82" source="104" target="LhFVCq_YZiJixjiF2FCT-207" edge="1">
                    <mxGeometry relative="1" as="geometry">
                        <mxPoint x="1103" y="2420" as="sourcePoint"/>
                        <Array as="points">
                            <mxPoint x="952.865" y="352"/>
                            <mxPoint x="1110" y="378"/>
                        </Array>
                    </mxGeometry>
                </mxCell>
                <mxCell id="LhFVCq_YZiJixjiF2FCT-207" value="total expenses" style="whiteSpace=wrap;html=1;" parent="82" vertex="1">
                    <mxGeometry x="1060" y="390" width="100" height="40" as="geometry"/>
                </mxCell>
                <mxCell id="LhFVCq_YZiJixjiF2FCT-208" value="" style="edgeStyle=none;html=1;noEdgeStyle=1;orthogonal=1;" parent="82" source="122" target="LhFVCq_YZiJixjiF2FCT-209" edge="1">
                    <mxGeometry relative="1" as="geometry">
                        <mxPoint x="1301" y="2380" as="sourcePoint"/>
                        <Array as="points">
                            <mxPoint x="1215.365" y="354"/>
                            <mxPoint x="1370" y="378"/>
                        </Array>
                    </mxGeometry>
                </mxCell>
                <mxCell id="LhFVCq_YZiJixjiF2FCT-209" value="budget" style="whiteSpace=wrap;html=1;" parent="82" vertex="1">
                    <mxGeometry x="1320" y="390" width="100" height="40" as="geometry"/>
                </mxCell>
                <mxCell id="LhFVCq_YZiJixjiF2FCT-210" value="" style="edgeStyle=none;html=1;noEdgeStyle=1;orthogonal=1;" parent="82" source="122" target="LhFVCq_YZiJixjiF2FCT-211" edge="1">
                    <mxGeometry relative="1" as="geometry">
                        <mxPoint x="1457" y="2340" as="sourcePoint"/>
                        <Array as="points">
                            <mxPoint x="1245.365" y="352"/>
                            <mxPoint x="1500" y="378"/>
                        </Array>
                    </mxGeometry>
                </mxCell>
                <mxCell id="LhFVCq_YZiJixjiF2FCT-211" value="total savings" style="whiteSpace=wrap;html=1;" parent="82" vertex="1">
                    <mxGeometry x="1450" y="390" width="100" height="40" as="geometry"/>
                </mxCell>
                <mxCell id="131" value="saving the data from overflow table" style="swimlane;startSize=20;horizontal=1;childLayout=flowLayout;flowOrientation=north;resizable=0;interRankCellSpacing=50;containerType=tree;fontSize=12;" parent="1" vertex="1">
                    <mxGeometry x="-220" y="820" width="1480" height="770" as="geometry"/>
                </mxCell>
                <mxCell id="132" value="user enters the data" style="whiteSpace=wrap;html=1;" parent="131" vertex="1">
                    <mxGeometry x="690" y="40" width="100" height="40" as="geometry"/>
                </mxCell>
                <mxCell id="133" value="data is save in the overflow table" style="whiteSpace=wrap;html=1;" parent="131" vertex="1">
                    <mxGeometry x="690" y="130" width="100" height="40" as="geometry"/>
                </mxCell>
                <mxCell id="134" value="" style="html=1;rounded=1;curved=0;sourcePerimeterSpacing=0;targetPerimeterSpacing=0;startSize=6;endSize=6;noEdgeStyle=1;orthogonal=1;" parent="131" source="132" target="133" edge="1">
                    <mxGeometry relative="1" as="geometry">
                        <Array as="points">
                            <mxPoint x="740" y="92"/>
                            <mxPoint x="740" y="118"/>
                        </Array>
                    </mxGeometry>
                </mxCell>
                <mxCell id="140" value="" style="html=1;rounded=1;curved=0;sourcePerimeterSpacing=0;targetPerimeterSpacing=0;startSize=6;endSize=6;noEdgeStyle=1;orthogonal=1;" parent="131" source="133" target="141" edge="1">
                    <mxGeometry relative="1" as="geometry">
                        <mxPoint x="1415" y="3640" as="sourcePoint"/>
                        <Array as="points">
                            <mxPoint x="740" y="182"/>
                            <mxPoint x="740" y="208"/>
                        </Array>
                    </mxGeometry>
                </mxCell>
                <mxCell id="141" value="user clicks the save button and mesage is displayed" style="whiteSpace=wrap;html=1;" parent="131" vertex="1">
                    <mxGeometry x="685" y="220" width="110" height="60" as="geometry"/>
                </mxCell>
                <mxCell id="144" value="" style="html=1;rounded=1;curved=0;sourcePerimeterSpacing=0;targetPerimeterSpacing=0;startSize=6;endSize=6;noEdgeStyle=1;orthogonal=1;" parent="131" source="141" target="145" edge="1">
                    <mxGeometry relative="1" as="geometry">
                        <mxPoint x="1365" y="3610" as="sourcePoint"/>
                        <Array as="points">
                            <mxPoint x="740" y="292"/>
                            <mxPoint x="740" y="318"/>
                        </Array>
                    </mxGeometry>
                </mxCell>
                <mxCell id="145" value="wat happens at the back" style="whiteSpace=wrap;html=1;" parent="131" vertex="1">
                    <mxGeometry x="695" y="330" width="90" height="40" as="geometry"/>
                </mxCell>
                <mxCell id="148" value="" style="html=1;rounded=1;curved=0;sourcePerimeterSpacing=0;targetPerimeterSpacing=0;startSize=6;endSize=6;noEdgeStyle=1;orthogonal=1;" parent="131" source="145" target="149" edge="1">
                    <mxGeometry relative="1" as="geometry">
                        <mxPoint x="1300" y="3600" as="sourcePoint"/>
                        <Array as="points">
                            <mxPoint x="740" y="382"/>
                            <mxPoint x="740" y="408"/>
                        </Array>
                    </mxGeometry>
                </mxCell>
                <mxCell id="149" value="the handlesave define which variables to be saved" style="whiteSpace=wrap;html=1;" parent="131" vertex="1">
                    <mxGeometry x="690" y="420" width="100" height="60" as="geometry"/>
                </mxCell>
                <mxCell id="LhFVCq_YZiJixjiF2FCT-153" value="" style="html=1;rounded=1;curved=0;sourcePerimeterSpacing=0;targetPerimeterSpacing=0;startSize=6;endSize=6;noEdgeStyle=1;orthogonal=1;" parent="131" source="149" target="LhFVCq_YZiJixjiF2FCT-154" edge="1">
                    <mxGeometry relative="1" as="geometry">
                        <mxPoint x="1325" y="3230" as="sourcePoint"/>
                        <Array as="points">
                            <mxPoint x="710" y="492"/>
                            <mxPoint x="610" y="518"/>
                        </Array>
                    </mxGeometry>
                </mxCell>
                <mxCell id="LhFVCq_YZiJixjiF2FCT-154" value="monthSelected" style="whiteSpace=wrap;html=1;" parent="131" vertex="1">
                    <mxGeometry x="560" y="530" width="100" height="60" as="geometry"/>
                </mxCell>
                <mxCell id="LhFVCq_YZiJixjiF2FCT-155" value="" style="html=1;rounded=1;curved=0;sourcePerimeterSpacing=0;targetPerimeterSpacing=0;startSize=6;endSize=6;noEdgeStyle=1;orthogonal=1;" parent="131" source="149" target="LhFVCq_YZiJixjiF2FCT-156" edge="1">
                    <mxGeometry relative="1" as="geometry">
                        <mxPoint x="1285" y="3260" as="sourcePoint"/>
                        <Array as="points">
                            <mxPoint x="740" y="494"/>
                            <mxPoint x="740" y="518"/>
                        </Array>
                    </mxGeometry>
                </mxCell>
                <mxCell id="LhFVCq_YZiJixjiF2FCT-156" value="timestamp" style="whiteSpace=wrap;html=1;" parent="131" vertex="1">
                    <mxGeometry x="690" y="530" width="100" height="60" as="geometry"/>
                </mxCell>
                <mxCell id="LhFVCq_YZiJixjiF2FCT-157" value="" style="html=1;rounded=1;curved=0;sourcePerimeterSpacing=0;targetPerimeterSpacing=0;startSize=6;endSize=6;noEdgeStyle=1;orthogonal=1;" parent="131" source="149" target="LhFVCq_YZiJixjiF2FCT-158" edge="1">
                    <mxGeometry relative="1" as="geometry">
                        <mxPoint x="1348" y="3220" as="sourcePoint"/>
                        <Array as="points">
                            <mxPoint x="770" y="492"/>
                            <mxPoint x="870" y="518"/>
                        </Array>
                    </mxGeometry>
                </mxCell>
                <mxCell id="LhFVCq_YZiJixjiF2FCT-158" value="the oveflow table" style="whiteSpace=wrap;html=1;" parent="131" vertex="1">
                    <mxGeometry x="820" y="530" width="100" height="60" as="geometry"/>
                </mxCell>
                <mxCell id="LhFVCq_YZiJixjiF2FCT-159" value="" style="html=1;rounded=1;curved=0;sourcePerimeterSpacing=0;targetPerimeterSpacing=0;startSize=6;endSize=6;noEdgeStyle=1;orthogonal=1;" parent="131" source="LhFVCq_YZiJixjiF2FCT-158" target="LhFVCq_YZiJixjiF2FCT-160" edge="1">
                    <mxGeometry relative="1" as="geometry">
                        <mxPoint x="1340" y="3060" as="sourcePoint"/>
                        <Array as="points">
                            <mxPoint x="836.25" y="602"/>
                            <mxPoint x="367.5" y="628"/>
                        </Array>
                    </mxGeometry>
                </mxCell>
                <mxCell id="LhFVCq_YZiJixjiF2FCT-160" value="income" style="whiteSpace=wrap;html=1;" parent="131" vertex="1">
                    <mxGeometry x="317.5" y="640" width="100" height="30" as="geometry"/>
                </mxCell>
                <mxCell id="LhFVCq_YZiJixjiF2FCT-161" value="" style="html=1;rounded=1;curved=0;sourcePerimeterSpacing=0;targetPerimeterSpacing=0;startSize=6;endSize=6;noEdgeStyle=1;orthogonal=1;" parent="131" source="LhFVCq_YZiJixjiF2FCT-158" target="LhFVCq_YZiJixjiF2FCT-162" edge="1">
                    <mxGeometry relative="1" as="geometry">
                        <mxPoint x="1420" y="3130" as="sourcePoint"/>
                        <Array as="points">
                            <mxPoint x="858.75" y="604"/>
                            <mxPoint x="648.75" y="628"/>
                        </Array>
                    </mxGeometry>
                </mxCell>
                <mxCell id="LhFVCq_YZiJixjiF2FCT-162" value="bills" style="whiteSpace=wrap;html=1;" parent="131" vertex="1">
                    <mxGeometry x="603.75" y="640" width="90" height="30" as="geometry"/>
                </mxCell>
                <mxCell id="LhFVCq_YZiJixjiF2FCT-163" value="" style="html=1;rounded=1;curved=0;sourcePerimeterSpacing=0;targetPerimeterSpacing=0;startSize=6;endSize=6;noEdgeStyle=1;orthogonal=1;" parent="131" source="LhFVCq_YZiJixjiF2FCT-158" target="LhFVCq_YZiJixjiF2FCT-164" edge="1">
                    <mxGeometry relative="1" as="geometry">
                        <mxPoint x="1423" y="3090" as="sourcePoint"/>
                        <Array as="points">
                            <mxPoint x="881.25" y="604"/>
                            <mxPoint x="805" y="628"/>
                        </Array>
                    </mxGeometry>
                </mxCell>
                <mxCell id="LhFVCq_YZiJixjiF2FCT-164" value="expenses" style="whiteSpace=wrap;html=1;" parent="131" vertex="1">
                    <mxGeometry x="760" y="640" width="90" height="30" as="geometry"/>
                </mxCell>
                <mxCell id="LhFVCq_YZiJixjiF2FCT-165" value="" style="html=1;rounded=1;curved=0;sourcePerimeterSpacing=0;targetPerimeterSpacing=0;startSize=6;endSize=6;noEdgeStyle=1;orthogonal=1;" parent="131" source="LhFVCq_YZiJixjiF2FCT-158" target="LhFVCq_YZiJixjiF2FCT-166" edge="1">
                    <mxGeometry relative="1" as="geometry">
                        <mxPoint x="1410" y="3050" as="sourcePoint"/>
                        <Array as="points">
                            <mxPoint x="903.75" y="602"/>
                            <mxPoint x="1188.75" y="628"/>
                        </Array>
                    </mxGeometry>
                </mxCell>
                <mxCell id="LhFVCq_YZiJixjiF2FCT-166" value="savings" style="whiteSpace=wrap;html=1;" parent="131" vertex="1">
                    <mxGeometry x="1143.75" y="640" width="90" height="30" as="geometry"/>
                </mxCell>
                <mxCell id="LhFVCq_YZiJixjiF2FCT-167" value="" style="html=1;rounded=1;curved=0;sourcePerimeterSpacing=0;targetPerimeterSpacing=0;startSize=6;endSize=6;noEdgeStyle=1;orthogonal=1;" parent="131" source="LhFVCq_YZiJixjiF2FCT-160" target="LhFVCq_YZiJixjiF2FCT-168" edge="1">
                    <mxGeometry relative="1" as="geometry">
                        <mxPoint x="1216" y="2690" as="sourcePoint"/>
                        <Array as="points">
                            <mxPoint x="337.5" y="682"/>
                            <mxPoint x="70" y="708"/>
                        </Array>
                    </mxGeometry>
                </mxCell>
                <mxCell id="LhFVCq_YZiJixjiF2FCT-168" value="actual" style="whiteSpace=wrap;html=1;" parent="131" vertex="1">
                    <mxGeometry x="20" y="720" width="100" height="30" as="geometry"/>
                </mxCell>
                <mxCell id="LhFVCq_YZiJixjiF2FCT-169" value="" style="html=1;rounded=1;curved=0;sourcePerimeterSpacing=0;targetPerimeterSpacing=0;startSize=6;endSize=6;noEdgeStyle=1;orthogonal=1;" parent="131" source="LhFVCq_YZiJixjiF2FCT-160" target="LhFVCq_YZiJixjiF2FCT-170" edge="1">
                    <mxGeometry relative="1" as="geometry">
                        <mxPoint x="900" y="2690" as="sourcePoint"/>
                        <Array as="points">
                            <mxPoint x="367.5" y="684"/>
                            <mxPoint x="200" y="708"/>
                        </Array>
                    </mxGeometry>
                </mxCell>
                <mxCell id="LhFVCq_YZiJixjiF2FCT-170" value="budget" style="whiteSpace=wrap;html=1;" parent="131" vertex="1">
                    <mxGeometry x="150" y="720" width="100" height="30" as="geometry"/>
                </mxCell>
                <mxCell id="LhFVCq_YZiJixjiF2FCT-173" value="" style="html=1;rounded=1;curved=0;sourcePerimeterSpacing=0;targetPerimeterSpacing=0;startSize=6;endSize=6;noEdgeStyle=1;orthogonal=1;" parent="131" source="LhFVCq_YZiJixjiF2FCT-160" target="LhFVCq_YZiJixjiF2FCT-174" edge="1">
                    <mxGeometry relative="1" as="geometry">
                        <mxPoint x="818" y="2570" as="sourcePoint"/>
                        <Array as="points">
                            <mxPoint x="397.5" y="682"/>
                            <mxPoint x="330" y="708"/>
                        </Array>
                    </mxGeometry>
                </mxCell>
                <mxCell id="LhFVCq_YZiJixjiF2FCT-174" value="grandtotal" style="whiteSpace=wrap;html=1;" parent="131" vertex="1">
                    <mxGeometry x="280" y="720" width="100" height="30" as="geometry"/>
                </mxCell>
                <mxCell id="LhFVCq_YZiJixjiF2FCT-178" value="" style="html=1;rounded=1;curved=0;sourcePerimeterSpacing=0;targetPerimeterSpacing=0;startSize=6;endSize=6;noEdgeStyle=1;orthogonal=1;" parent="131" source="LhFVCq_YZiJixjiF2FCT-162" target="LhFVCq_YZiJixjiF2FCT-179" edge="1">
                    <mxGeometry relative="1" as="geometry">
                        <mxPoint x="1009" y="2290" as="sourcePoint"/>
                        <Array as="points">
                            <mxPoint x="622.0833333333334" y="682"/>
                            <mxPoint x="455" y="708"/>
                        </Array>
                    </mxGeometry>
                </mxCell>
                <mxCell id="LhFVCq_YZiJixjiF2FCT-179" value="actual" style="whiteSpace=wrap;html=1;" parent="131" vertex="1">
                    <mxGeometry x="410" y="720" width="90" height="30" as="geometry"/>
                </mxCell>
                <mxCell id="LhFVCq_YZiJixjiF2FCT-180" value="" style="html=1;rounded=1;curved=0;sourcePerimeterSpacing=0;targetPerimeterSpacing=0;startSize=6;endSize=6;noEdgeStyle=1;orthogonal=1;" parent="131" source="LhFVCq_YZiJixjiF2FCT-162" target="LhFVCq_YZiJixjiF2FCT-181" edge="1">
                    <mxGeometry relative="1" as="geometry">
                        <mxPoint x="825" y="2330" as="sourcePoint"/>
                        <Array as="points">
                            <mxPoint x="648.75" y="684"/>
                            <mxPoint x="575" y="708"/>
                        </Array>
                    </mxGeometry>
                </mxCell>
                <mxCell id="LhFVCq_YZiJixjiF2FCT-181" value="budget" style="whiteSpace=wrap;html=1;" parent="131" vertex="1">
                    <mxGeometry x="530" y="720" width="90" height="30" as="geometry"/>
                </mxCell>
                <mxCell id="LhFVCq_YZiJixjiF2FCT-182" value="" style="html=1;rounded=1;curved=0;sourcePerimeterSpacing=0;targetPerimeterSpacing=0;startSize=6;endSize=6;noEdgeStyle=1;orthogonal=1;" parent="131" source="LhFVCq_YZiJixjiF2FCT-162" target="LhFVCq_YZiJixjiF2FCT-183" edge="1">
                    <mxGeometry relative="1" as="geometry">
                        <mxPoint x="885" y="2290" as="sourcePoint"/>
                        <Array as="points">
                            <mxPoint x="675.4166666666666" y="682"/>
                            <mxPoint x="695" y="708"/>
                        </Array>
                    </mxGeometry>
                </mxCell>
                <mxCell id="LhFVCq_YZiJixjiF2FCT-183" value="grandtotal" style="whiteSpace=wrap;html=1;" parent="131" vertex="1">
                    <mxGeometry x="650" y="720" width="90" height="30" as="geometry"/>
                </mxCell>
                <mxCell id="LhFVCq_YZiJixjiF2FCT-184" value="" style="html=1;rounded=1;curved=0;sourcePerimeterSpacing=0;targetPerimeterSpacing=0;startSize=6;endSize=6;noEdgeStyle=1;orthogonal=1;" parent="131" source="LhFVCq_YZiJixjiF2FCT-164" target="LhFVCq_YZiJixjiF2FCT-185" edge="1">
                    <mxGeometry relative="1" as="geometry">
                        <mxPoint x="621" y="2050" as="sourcePoint"/>
                        <Array as="points">
                            <mxPoint x="778.3333333333334" y="682"/>
                            <mxPoint x="815" y="708"/>
                        </Array>
                    </mxGeometry>
                </mxCell>
                <mxCell id="LhFVCq_YZiJixjiF2FCT-185" value="actual" style="whiteSpace=wrap;html=1;" parent="131" vertex="1">
                    <mxGeometry x="770" y="720" width="90" height="30" as="geometry"/>
                </mxCell>
                <mxCell id="LhFVCq_YZiJixjiF2FCT-186" value="" style="html=1;rounded=1;curved=0;sourcePerimeterSpacing=0;targetPerimeterSpacing=0;startSize=6;endSize=6;noEdgeStyle=1;orthogonal=1;" parent="131" source="LhFVCq_YZiJixjiF2FCT-164" target="LhFVCq_YZiJixjiF2FCT-187" edge="1">
                    <mxGeometry relative="1" as="geometry">
                        <mxPoint x="585" y="2090" as="sourcePoint"/>
                        <Array as="points">
                            <mxPoint x="805" y="684"/>
                            <mxPoint x="935" y="708"/>
                        </Array>
                    </mxGeometry>
                </mxCell>
                <mxCell id="LhFVCq_YZiJixjiF2FCT-187" value="budget" style="whiteSpace=wrap;html=1;" parent="131" vertex="1">
                    <mxGeometry x="890" y="720" width="90" height="30" as="geometry"/>
                </mxCell>
                <mxCell id="LhFVCq_YZiJixjiF2FCT-188" value="" style="html=1;rounded=1;curved=0;sourcePerimeterSpacing=0;targetPerimeterSpacing=0;startSize=6;endSize=6;noEdgeStyle=1;orthogonal=1;" parent="131" source="LhFVCq_YZiJixjiF2FCT-164" target="LhFVCq_YZiJixjiF2FCT-189" edge="1">
                    <mxGeometry relative="1" as="geometry">
                        <mxPoint x="645" y="2050" as="sourcePoint"/>
                        <Array as="points">
                            <mxPoint x="831.6666666666666" y="682"/>
                            <mxPoint x="1055" y="708"/>
                        </Array>
                    </mxGeometry>
                </mxCell>
                <mxCell id="LhFVCq_YZiJixjiF2FCT-189" value="gradtotal" style="whiteSpace=wrap;html=1;" parent="131" vertex="1">
                    <mxGeometry x="1010" y="720" width="90" height="30" as="geometry"/>
                </mxCell>
                <mxCell id="LhFVCq_YZiJixjiF2FCT-190" value="" style="html=1;rounded=1;curved=0;sourcePerimeterSpacing=0;targetPerimeterSpacing=0;startSize=6;endSize=6;noEdgeStyle=1;orthogonal=1;" parent="131" source="LhFVCq_YZiJixjiF2FCT-166" target="LhFVCq_YZiJixjiF2FCT-191" edge="1">
                    <mxGeometry relative="1" as="geometry">
                        <mxPoint x="764" y="1930" as="sourcePoint"/>
                        <Array as="points">
                            <mxPoint x="1162.0833333333333" y="682"/>
                            <mxPoint x="1175" y="708"/>
                        </Array>
                    </mxGeometry>
                </mxCell>
                <mxCell id="LhFVCq_YZiJixjiF2FCT-191" value="actual" style="whiteSpace=wrap;html=1;" parent="131" vertex="1">
                    <mxGeometry x="1130" y="720" width="90" height="30" as="geometry"/>
                </mxCell>
                <mxCell id="LhFVCq_YZiJixjiF2FCT-192" value="" style="html=1;rounded=1;curved=0;sourcePerimeterSpacing=0;targetPerimeterSpacing=0;startSize=6;endSize=6;noEdgeStyle=1;orthogonal=1;" parent="131" source="LhFVCq_YZiJixjiF2FCT-166" target="LhFVCq_YZiJixjiF2FCT-193" edge="1">
                    <mxGeometry relative="1" as="geometry">
                        <mxPoint x="983" y="1970" as="sourcePoint"/>
                        <Array as="points">
                            <mxPoint x="1188.75" y="684"/>
                            <mxPoint x="1295" y="708"/>
                        </Array>
                    </mxGeometry>
                </mxCell>
                <mxCell id="LhFVCq_YZiJixjiF2FCT-193" value="budget" style="whiteSpace=wrap;html=1;" parent="131" vertex="1">
                    <mxGeometry x="1250" y="720" width="90" height="30" as="geometry"/>
                </mxCell>
                <mxCell id="LhFVCq_YZiJixjiF2FCT-194" value="" style="html=1;rounded=1;curved=0;sourcePerimeterSpacing=0;targetPerimeterSpacing=0;startSize=6;endSize=6;noEdgeStyle=1;orthogonal=1;" parent="131" source="LhFVCq_YZiJixjiF2FCT-166" target="LhFVCq_YZiJixjiF2FCT-195" edge="1">
                    <mxGeometry relative="1" as="geometry">
                        <mxPoint x="1113" y="1930" as="sourcePoint"/>
                        <Array as="points">
                            <mxPoint x="1215.4166666666667" y="682"/>
                            <mxPoint x="1415" y="708"/>
                        </Array>
                    </mxGeometry>
                </mxCell>
                <mxCell id="LhFVCq_YZiJixjiF2FCT-195" value="grandtotal" style="whiteSpace=wrap;html=1;" parent="131" vertex="1">
                    <mxGeometry x="1370" y="720" width="90" height="30" as="geometry"/>
                </mxCell>
                <mxCell id="LhFVCq_YZiJixjiF2FCT-212" value="" style="shape=singleArrow;direction=south;whiteSpace=wrap;html=1;fillColor=#e51400;fontColor=#ffffff;strokeColor=#B20000;" parent="1" vertex="1">
                    <mxGeometry x="490" y="1590" width="60" height="80" as="geometry"/>
                </mxCell>
                <mxCell id="LhFVCq_YZiJixjiF2FCT-214" value="" style="shape=ext;double=1;rounded=0;whiteSpace=wrap;html=1;shadow=1;glass=0;" parent="1" vertex="1">
                    <mxGeometry x="-195" y="2130" width="1270" height="1590" as="geometry"/>
                </mxCell>
                <mxCell id="LhFVCq_YZiJixjiF2FCT-216" value="" style="shape=delay;whiteSpace=wrap;html=1;direction=north;fillColor=#0050ef;fontColor=#ffffff;strokeColor=#001DBC;shadow=1;" parent="1" vertex="1">
                    <mxGeometry x="-120" y="2200" width="1160" height="140" as="geometry"/>
                </mxCell>
                <mxCell id="LhFVCq_YZiJixjiF2FCT-217" value="MONEY MAP" style="text;html=1;align=center;verticalAlign=middle;whiteSpace=wrap;rounded=0;" parent="1" vertex="1">
                    <mxGeometry x="-75" y="2270" width="100" height="30" as="geometry"/>
                </mxCell>
                <mxCell id="LhFVCq_YZiJixjiF2FCT-218" value="" style="shape=image;html=1;verticalLabelPosition=bottom;verticalAlign=top;imageAspect=1;aspect=fixed;image=img/clipart/Gear_128x128.png" parent="1" vertex="1">
                    <mxGeometry x="498" y="2230" width="52" height="61" as="geometry"/>
                </mxCell>
                <mxCell id="LhFVCq_YZiJixjiF2FCT-219" value="" style="shape=image;html=1;verticalLabelPosition=bottom;verticalAlign=top;imageAspect=0;image=img/clipart/Gear_128x128.png" parent="1" vertex="1">
                    <mxGeometry x="610" y="2231" width="50" height="60" as="geometry"/>
                </mxCell>
                <mxCell id="LhFVCq_YZiJixjiF2FCT-220" value="LIGHT/DARK TOGGLE" style="rounded=1;whiteSpace=wrap;html=1;" parent="1" vertex="1">
                    <mxGeometry x="740" y="2260" width="120" height="30" as="geometry"/>
                </mxCell>
                <mxCell id="LhFVCq_YZiJixjiF2FCT-221" value="KEEEP YOU MONEKFENEKKNGKNRINKJNKNFDIBIVOISNVVOINVOIFVFDASVAVABVSFEBWBB" style="text;html=1;align=center;verticalAlign=middle;whiteSpace=wrap;rounded=0;" parent="1" vertex="1">
                    <mxGeometry x="162.5" y="2380" width="595" height="30" as="geometry"/>
                </mxCell>
                <mxCell id="LhFVCq_YZiJixjiF2FCT-222" value="THBEBAKBDFJBFUBSCKNNIANIERIQBGBIOQEBOWQFNFNW" style="text;html=1;align=center;verticalAlign=middle;whiteSpace=wrap;rounded=0;" parent="1" vertex="1">
                    <mxGeometry x="400" y="2420" width="60" height="30" as="geometry"/>
                </mxCell>
                <mxCell id="LhFVCq_YZiJixjiF2FCT-223" value="" style="rounded=1;whiteSpace=wrap;html=1;" parent="1" vertex="1">
                    <mxGeometry x="-30" y="2470" width="970" height="1180" as="geometry"/>
                </mxCell>
                <mxCell id="LhFVCq_YZiJixjiF2FCT-224" value="NAV BAR" style="rounded=1;whiteSpace=wrap;html=1;fillColor=#ffcd28;gradientColor=#ffa500;strokeColor=#d79b00;" parent="1" vertex="1">
                    <mxGeometry x="90" y="2530" width="680" height="60" as="geometry"/>
                </mxCell>
                <mxCell id="LhFVCq_YZiJixjiF2FCT-229" value="Table" style="shape=table;startSize=30;container=1;collapsible=0;childLayout=tableLayout;fixedRows=1;rowLines=0;fontStyle=0;strokeColor=default;fontSize=16;" parent="1" vertex="1">
                    <mxGeometry x="40" y="2630" width="180" height="120" as="geometry"/>
                </mxCell>
                <mxCell id="LhFVCq_YZiJixjiF2FCT-230" value="" style="shape=tableRow;horizontal=0;startSize=0;swimlaneHead=0;swimlaneBody=0;top=0;left=0;bottom=0;right=0;collapsible=0;dropTarget=0;fillColor=none;points=[[0,0.5],[1,0.5]];portConstraint=eastwest;strokeColor=inherit;fontSize=16;" parent="LhFVCq_YZiJixjiF2FCT-229" vertex="1">
                    <mxGeometry y="30" width="180" height="30" as="geometry"/>
                </mxCell>
                <mxCell id="LhFVCq_YZiJixjiF2FCT-231" value="1" style="shape=partialRectangle;html=1;whiteSpace=wrap;connectable=0;fillColor=none;top=0;left=0;bottom=0;right=0;overflow=hidden;pointerEvents=1;strokeColor=inherit;fontSize=16;" parent="LhFVCq_YZiJixjiF2FCT-230" vertex="1">
                    <mxGeometry width="40" height="30" as="geometry">
                        <mxRectangle width="40" height="30" as="alternateBounds"/>
                    </mxGeometry>
                </mxCell>
                <mxCell id="LhFVCq_YZiJixjiF2FCT-232" value="Value 1" style="shape=partialRectangle;html=1;whiteSpace=wrap;connectable=0;fillColor=none;top=0;left=0;bottom=0;right=0;align=left;spacingLeft=6;overflow=hidden;strokeColor=inherit;fontSize=16;" parent="LhFVCq_YZiJixjiF2FCT-230" vertex="1">
                    <mxGeometry x="40" width="140" height="30" as="geometry">
                        <mxRectangle width="140" height="30" as="alternateBounds"/>
                    </mxGeometry>
                </mxCell>
                <mxCell id="LhFVCq_YZiJixjiF2FCT-233" value="" style="shape=tableRow;horizontal=0;startSize=0;swimlaneHead=0;swimlaneBody=0;top=0;left=0;bottom=0;right=0;collapsible=0;dropTarget=0;fillColor=none;points=[[0,0.5],[1,0.5]];portConstraint=eastwest;strokeColor=inherit;fontSize=16;" parent="LhFVCq_YZiJixjiF2FCT-229" vertex="1">
                    <mxGeometry y="60" width="180" height="30" as="geometry"/>
                </mxCell>
                <mxCell id="LhFVCq_YZiJixjiF2FCT-234" value="2" style="shape=partialRectangle;html=1;whiteSpace=wrap;connectable=0;fillColor=none;top=0;left=0;bottom=0;right=0;overflow=hidden;strokeColor=inherit;fontSize=16;" parent="LhFVCq_YZiJixjiF2FCT-233" vertex="1">
                    <mxGeometry width="40" height="30" as="geometry">
                        <mxRectangle width="40" height="30" as="alternateBounds"/>
                    </mxGeometry>
                </mxCell>
                <mxCell id="LhFVCq_YZiJixjiF2FCT-235" value="Value 2" style="shape=partialRectangle;html=1;whiteSpace=wrap;connectable=0;fillColor=none;top=0;left=0;bottom=0;right=0;align=left;spacingLeft=6;overflow=hidden;strokeColor=inherit;fontSize=16;" parent="LhFVCq_YZiJixjiF2FCT-233" vertex="1">
                    <mxGeometry x="40" width="140" height="30" as="geometry">
                        <mxRectangle width="140" height="30" as="alternateBounds"/>
                    </mxGeometry>
                </mxCell>
                <mxCell id="LhFVCq_YZiJixjiF2FCT-236" value="" style="shape=tableRow;horizontal=0;startSize=0;swimlaneHead=0;swimlaneBody=0;top=0;left=0;bottom=0;right=0;collapsible=0;dropTarget=0;fillColor=none;points=[[0,0.5],[1,0.5]];portConstraint=eastwest;strokeColor=inherit;fontSize=16;" parent="LhFVCq_YZiJixjiF2FCT-229" vertex="1">
                    <mxGeometry y="90" width="180" height="30" as="geometry"/>
                </mxCell>
                <mxCell id="LhFVCq_YZiJixjiF2FCT-237" value="3" style="shape=partialRectangle;html=1;whiteSpace=wrap;connectable=0;fillColor=none;top=0;left=0;bottom=0;right=0;overflow=hidden;strokeColor=inherit;fontSize=16;" parent="LhFVCq_YZiJixjiF2FCT-236" vertex="1">
                    <mxGeometry width="40" height="30" as="geometry">
                        <mxRectangle width="40" height="30" as="alternateBounds"/>
                    </mxGeometry>
                </mxCell>
                <mxCell id="LhFVCq_YZiJixjiF2FCT-238" value="Value 3" style="shape=partialRectangle;html=1;whiteSpace=wrap;connectable=0;fillColor=none;top=0;left=0;bottom=0;right=0;align=left;spacingLeft=6;overflow=hidden;strokeColor=inherit;fontSize=16;" parent="LhFVCq_YZiJixjiF2FCT-236" vertex="1">
                    <mxGeometry x="40" width="140" height="30" as="geometry">
                        <mxRectangle width="140" height="30" as="alternateBounds"/>
                    </mxGeometry>
                </mxCell>
                <mxCell id="LhFVCq_YZiJixjiF2FCT-239" value="Table" style="shape=table;startSize=30;container=1;collapsible=0;childLayout=tableLayout;fixedRows=1;rowLines=0;fontStyle=0;strokeColor=#001DBC;fontSize=16;fillColor=#0050ef;fontColor=#ffffff;" parent="1" vertex="1">
                    <mxGeometry x="450" y="2930" width="180" height="110" as="geometry"/>
                </mxCell>
                <mxCell id="LhFVCq_YZiJixjiF2FCT-240" value="" style="shape=tableRow;horizontal=0;startSize=0;swimlaneHead=0;swimlaneBody=0;top=0;left=0;bottom=0;right=0;collapsible=0;dropTarget=0;fillColor=none;points=[[0,0.5],[1,0.5]];portConstraint=eastwest;strokeColor=inherit;fontSize=16;" parent="LhFVCq_YZiJixjiF2FCT-239" vertex="1">
                    <mxGeometry y="30" width="180" height="20" as="geometry"/>
                </mxCell>
                <mxCell id="LhFVCq_YZiJixjiF2FCT-241" value="1" style="shape=partialRectangle;html=1;whiteSpace=wrap;connectable=0;fillColor=none;top=0;left=0;bottom=0;right=0;overflow=hidden;pointerEvents=1;strokeColor=inherit;fontSize=16;" parent="LhFVCq_YZiJixjiF2FCT-240" vertex="1">
                    <mxGeometry width="40" height="20" as="geometry">
                        <mxRectangle width="40" height="20" as="alternateBounds"/>
                    </mxGeometry>
                </mxCell>
                <mxCell id="LhFVCq_YZiJixjiF2FCT-242" value="Value 1" style="shape=partialRectangle;html=1;whiteSpace=wrap;connectable=0;fillColor=none;top=0;left=0;bottom=0;right=0;align=left;spacingLeft=6;overflow=hidden;strokeColor=inherit;fontSize=16;" parent="LhFVCq_YZiJixjiF2FCT-240" vertex="1">
                    <mxGeometry x="40" width="140" height="20" as="geometry">
                        <mxRectangle width="140" height="20" as="alternateBounds"/>
                    </mxGeometry>
                </mxCell>
                <mxCell id="LhFVCq_YZiJixjiF2FCT-243" value="" style="shape=tableRow;horizontal=0;startSize=0;swimlaneHead=0;swimlaneBody=0;top=0;left=0;bottom=0;right=0;collapsible=0;dropTarget=0;fillColor=none;points=[[0,0.5],[1,0.5]];portConstraint=eastwest;strokeColor=inherit;fontSize=16;" parent="LhFVCq_YZiJixjiF2FCT-239" vertex="1">
                    <mxGeometry y="50" width="180" height="30" as="geometry"/>
                </mxCell>
                <mxCell id="LhFVCq_YZiJixjiF2FCT-244" value="2" style="shape=partialRectangle;html=1;whiteSpace=wrap;connectable=0;fillColor=none;top=0;left=0;bottom=0;right=0;overflow=hidden;strokeColor=inherit;fontSize=16;" parent="LhFVCq_YZiJixjiF2FCT-243" vertex="1">
                    <mxGeometry width="40" height="30" as="geometry">
                        <mxRectangle width="40" height="30" as="alternateBounds"/>
                    </mxGeometry>
                </mxCell>
                <mxCell id="LhFVCq_YZiJixjiF2FCT-245" value="Value 2" style="shape=partialRectangle;html=1;whiteSpace=wrap;connectable=0;fillColor=none;top=0;left=0;bottom=0;right=0;align=left;spacingLeft=6;overflow=hidden;strokeColor=inherit;fontSize=16;" parent="LhFVCq_YZiJixjiF2FCT-243" vertex="1">
                    <mxGeometry x="40" width="140" height="30" as="geometry">
                        <mxRectangle width="140" height="30" as="alternateBounds"/>
                    </mxGeometry>
                </mxCell>
                <mxCell id="LhFVCq_YZiJixjiF2FCT-246" value="" style="shape=tableRow;horizontal=0;startSize=0;swimlaneHead=0;swimlaneBody=0;top=0;left=0;bottom=0;right=0;collapsible=0;dropTarget=0;fillColor=none;points=[[0,0.5],[1,0.5]];portConstraint=eastwest;strokeColor=inherit;fontSize=16;" parent="LhFVCq_YZiJixjiF2FCT-239" vertex="1">
                    <mxGeometry y="80" width="180" height="30" as="geometry"/>
                </mxCell>
                <mxCell id="LhFVCq_YZiJixjiF2FCT-247" value="3" style="shape=partialRectangle;html=1;whiteSpace=wrap;connectable=0;fillColor=none;top=0;left=0;bottom=0;right=0;overflow=hidden;strokeColor=inherit;fontSize=16;" parent="LhFVCq_YZiJixjiF2FCT-246" vertex="1">
                    <mxGeometry width="40" height="30" as="geometry">
                        <mxRectangle width="40" height="30" as="alternateBounds"/>
                    </mxGeometry>
                </mxCell>
                <mxCell id="LhFVCq_YZiJixjiF2FCT-248" value="Value 3" style="shape=partialRectangle;html=1;whiteSpace=wrap;connectable=0;fillColor=none;top=0;left=0;bottom=0;right=0;align=left;spacingLeft=6;overflow=hidden;strokeColor=inherit;fontSize=16;" parent="LhFVCq_YZiJixjiF2FCT-246" vertex="1">
                    <mxGeometry x="40" width="140" height="30" as="geometry">
                        <mxRectangle width="140" height="30" as="alternateBounds"/>
                    </mxGeometry>
                </mxCell>
                <mxCell id="LhFVCq_YZiJixjiF2FCT-249" value="Table" style="shape=table;startSize=30;container=1;collapsible=0;childLayout=tableLayout;fixedRows=1;rowLines=0;fontStyle=0;strokeColor=#2D7600;fontSize=16;fillColor=#60a917;fontColor=#ffffff;" parent="1" vertex="1">
                    <mxGeometry x="40" y="2780" width="180" height="120" as="geometry"/>
                </mxCell>
                <mxCell id="LhFVCq_YZiJixjiF2FCT-250" value="" style="shape=tableRow;horizontal=0;startSize=0;swimlaneHead=0;swimlaneBody=0;top=0;left=0;bottom=0;right=0;collapsible=0;dropTarget=0;fillColor=none;points=[[0,0.5],[1,0.5]];portConstraint=eastwest;strokeColor=inherit;fontSize=16;" parent="LhFVCq_YZiJixjiF2FCT-249" vertex="1">
                    <mxGeometry y="30" width="180" height="30" as="geometry"/>
                </mxCell>
                <mxCell id="LhFVCq_YZiJixjiF2FCT-251" value="1" style="shape=partialRectangle;html=1;whiteSpace=wrap;connectable=0;fillColor=none;top=0;left=0;bottom=0;right=0;overflow=hidden;pointerEvents=1;strokeColor=inherit;fontSize=16;" parent="LhFVCq_YZiJixjiF2FCT-250" vertex="1">
                    <mxGeometry width="40" height="30" as="geometry">
                        <mxRectangle width="40" height="30" as="alternateBounds"/>
                    </mxGeometry>
                </mxCell>
                <mxCell id="LhFVCq_YZiJixjiF2FCT-252" value="Value 1" style="shape=partialRectangle;html=1;whiteSpace=wrap;connectable=0;fillColor=none;top=0;left=0;bottom=0;right=0;align=left;spacingLeft=6;overflow=hidden;strokeColor=inherit;fontSize=16;" parent="LhFVCq_YZiJixjiF2FCT-250" vertex="1">
                    <mxGeometry x="40" width="140" height="30" as="geometry">
                        <mxRectangle width="140" height="30" as="alternateBounds"/>
                    </mxGeometry>
                </mxCell>
                <mxCell id="LhFVCq_YZiJixjiF2FCT-253" value="" style="shape=tableRow;horizontal=0;startSize=0;swimlaneHead=0;swimlaneBody=0;top=0;left=0;bottom=0;right=0;collapsible=0;dropTarget=0;fillColor=none;points=[[0,0.5],[1,0.5]];portConstraint=eastwest;strokeColor=inherit;fontSize=16;" parent="LhFVCq_YZiJixjiF2FCT-249" vertex="1">
                    <mxGeometry y="60" width="180" height="30" as="geometry"/>
                </mxCell>
                <mxCell id="LhFVCq_YZiJixjiF2FCT-254" value="2" style="shape=partialRectangle;html=1;whiteSpace=wrap;connectable=0;fillColor=none;top=0;left=0;bottom=0;right=0;overflow=hidden;strokeColor=inherit;fontSize=16;" parent="LhFVCq_YZiJixjiF2FCT-253" vertex="1">
                    <mxGeometry width="40" height="30" as="geometry">
                        <mxRectangle width="40" height="30" as="alternateBounds"/>
                    </mxGeometry>
                </mxCell>
                <mxCell id="LhFVCq_YZiJixjiF2FCT-255" value="Value 2" style="shape=partialRectangle;html=1;whiteSpace=wrap;connectable=0;fillColor=none;top=0;left=0;bottom=0;right=0;align=left;spacingLeft=6;overflow=hidden;strokeColor=inherit;fontSize=16;" parent="LhFVCq_YZiJixjiF2FCT-253" vertex="1">
                    <mxGeometry x="40" width="140" height="30" as="geometry">
                        <mxRectangle width="140" height="30" as="alternateBounds"/>
                    </mxGeometry>
                </mxCell>
                <mxCell id="LhFVCq_YZiJixjiF2FCT-256" value="" style="shape=tableRow;horizontal=0;startSize=0;swimlaneHead=0;swimlaneBody=0;top=0;left=0;bottom=0;right=0;collapsible=0;dropTarget=0;fillColor=none;points=[[0,0.5],[1,0.5]];portConstraint=eastwest;strokeColor=inherit;fontSize=16;" parent="LhFVCq_YZiJixjiF2FCT-249" vertex="1">
                    <mxGeometry y="90" width="180" height="30" as="geometry"/>
                </mxCell>
                <mxCell id="LhFVCq_YZiJixjiF2FCT-257" value="3" style="shape=partialRectangle;html=1;whiteSpace=wrap;connectable=0;fillColor=none;top=0;left=0;bottom=0;right=0;overflow=hidden;strokeColor=inherit;fontSize=16;" parent="LhFVCq_YZiJixjiF2FCT-256" vertex="1">
                    <mxGeometry width="40" height="30" as="geometry">
                        <mxRectangle width="40" height="30" as="alternateBounds"/>
                    </mxGeometry>
                </mxCell>
                <mxCell id="LhFVCq_YZiJixjiF2FCT-258" value="Value 3" style="shape=partialRectangle;html=1;whiteSpace=wrap;connectable=0;fillColor=none;top=0;left=0;bottom=0;right=0;align=left;spacingLeft=6;overflow=hidden;strokeColor=inherit;fontSize=16;" parent="LhFVCq_YZiJixjiF2FCT-256" vertex="1">
                    <mxGeometry x="40" width="140" height="30" as="geometry">
                        <mxRectangle width="140" height="30" as="alternateBounds"/>
                    </mxGeometry>
                </mxCell>
                <mxCell id="LhFVCq_YZiJixjiF2FCT-259" value="Table" style="shape=table;startSize=30;container=1;collapsible=0;childLayout=tableLayout;fixedRows=1;rowLines=0;fontStyle=0;strokeColor=#B20000;fontSize=16;fillColor=#e51400;fontColor=#ffffff;" parent="1" vertex="1">
                    <mxGeometry x="450" y="2780" width="180" height="120" as="geometry"/>
                </mxCell>
                <mxCell id="LhFVCq_YZiJixjiF2FCT-260" value="" style="shape=tableRow;horizontal=0;startSize=0;swimlaneHead=0;swimlaneBody=0;top=0;left=0;bottom=0;right=0;collapsible=0;dropTarget=0;fillColor=none;points=[[0,0.5],[1,0.5]];portConstraint=eastwest;strokeColor=inherit;fontSize=16;" parent="LhFVCq_YZiJixjiF2FCT-259" vertex="1">
                    <mxGeometry y="30" width="180" height="30" as="geometry"/>
                </mxCell>
                <mxCell id="LhFVCq_YZiJixjiF2FCT-261" value="1" style="shape=partialRectangle;html=1;whiteSpace=wrap;connectable=0;fillColor=none;top=0;left=0;bottom=0;right=0;overflow=hidden;pointerEvents=1;strokeColor=inherit;fontSize=16;" parent="LhFVCq_YZiJixjiF2FCT-260" vertex="1">
                    <mxGeometry width="40" height="30" as="geometry">
                        <mxRectangle width="40" height="30" as="alternateBounds"/>
                    </mxGeometry>
                </mxCell>
                <mxCell id="LhFVCq_YZiJixjiF2FCT-262" value="Value 1" style="shape=partialRectangle;html=1;whiteSpace=wrap;connectable=0;fillColor=none;top=0;left=0;bottom=0;right=0;align=left;spacingLeft=6;overflow=hidden;strokeColor=inherit;fontSize=16;" parent="LhFVCq_YZiJixjiF2FCT-260" vertex="1">
                    <mxGeometry x="40" width="140" height="30" as="geometry">
                        <mxRectangle width="140" height="30" as="alternateBounds"/>
                    </mxGeometry>
                </mxCell>
                <mxCell id="LhFVCq_YZiJixjiF2FCT-263" value="" style="shape=tableRow;horizontal=0;startSize=0;swimlaneHead=0;swimlaneBody=0;top=0;left=0;bottom=0;right=0;collapsible=0;dropTarget=0;fillColor=none;points=[[0,0.5],[1,0.5]];portConstraint=eastwest;strokeColor=inherit;fontSize=16;" parent="LhFVCq_YZiJixjiF2FCT-259" vertex="1">
                    <mxGeometry y="60" width="180" height="30" as="geometry"/>
                </mxCell>
                <mxCell id="LhFVCq_YZiJixjiF2FCT-264" value="2" style="shape=partialRectangle;html=1;whiteSpace=wrap;connectable=0;fillColor=none;top=0;left=0;bottom=0;right=0;overflow=hidden;strokeColor=inherit;fontSize=16;" parent="LhFVCq_YZiJixjiF2FCT-263" vertex="1">
                    <mxGeometry width="40" height="30" as="geometry">
                        <mxRectangle width="40" height="30" as="alternateBounds"/>
                    </mxGeometry>
                </mxCell>
                <mxCell id="LhFVCq_YZiJixjiF2FCT-265" value="Value 2" style="shape=partialRectangle;html=1;whiteSpace=wrap;connectable=0;fillColor=none;top=0;left=0;bottom=0;right=0;align=left;spacingLeft=6;overflow=hidden;strokeColor=inherit;fontSize=16;" parent="LhFVCq_YZiJixjiF2FCT-263" vertex="1">
                    <mxGeometry x="40" width="140" height="30" as="geometry">
                        <mxRectangle width="140" height="30" as="alternateBounds"/>
                    </mxGeometry>
                </mxCell>
                <mxCell id="LhFVCq_YZiJixjiF2FCT-266" value="" style="shape=tableRow;horizontal=0;startSize=0;swimlaneHead=0;swimlaneBody=0;top=0;left=0;bottom=0;right=0;collapsible=0;dropTarget=0;fillColor=none;points=[[0,0.5],[1,0.5]];portConstraint=eastwest;strokeColor=inherit;fontSize=16;" parent="LhFVCq_YZiJixjiF2FCT-259" vertex="1">
                    <mxGeometry y="90" width="180" height="30" as="geometry"/>
                </mxCell>
                <mxCell id="LhFVCq_YZiJixjiF2FCT-267" value="3" style="shape=partialRectangle;html=1;whiteSpace=wrap;connectable=0;fillColor=none;top=0;left=0;bottom=0;right=0;overflow=hidden;strokeColor=inherit;fontSize=16;" parent="LhFVCq_YZiJixjiF2FCT-266" vertex="1">
                    <mxGeometry width="40" height="30" as="geometry">
                        <mxRectangle width="40" height="30" as="alternateBounds"/>
                    </mxGeometry>
                </mxCell>
                <mxCell id="LhFVCq_YZiJixjiF2FCT-268" value="Value 3" style="shape=partialRectangle;html=1;whiteSpace=wrap;connectable=0;fillColor=none;top=0;left=0;bottom=0;right=0;align=left;spacingLeft=6;overflow=hidden;strokeColor=inherit;fontSize=16;" parent="LhFVCq_YZiJixjiF2FCT-266" vertex="1">
                    <mxGeometry x="40" width="140" height="30" as="geometry">
                        <mxRectangle width="140" height="30" as="alternateBounds"/>
                    </mxGeometry>
                </mxCell>
                <mxCell id="LhFVCq_YZiJixjiF2FCT-269" value="Table" style="shape=table;startSize=30;container=1;collapsible=0;childLayout=tableLayout;fixedRows=1;rowLines=0;fontStyle=0;strokeColor=default;fontSize=16;" parent="1" vertex="1">
                    <mxGeometry x="450" y="2630" width="180" height="120" as="geometry"/>
                </mxCell>
                <mxCell id="LhFVCq_YZiJixjiF2FCT-270" value="" style="shape=tableRow;horizontal=0;startSize=0;swimlaneHead=0;swimlaneBody=0;top=0;left=0;bottom=0;right=0;collapsible=0;dropTarget=0;fillColor=none;points=[[0,0.5],[1,0.5]];portConstraint=eastwest;strokeColor=inherit;fontSize=16;" parent="LhFVCq_YZiJixjiF2FCT-269" vertex="1">
                    <mxGeometry y="30" width="180" height="30" as="geometry"/>
                </mxCell>
                <mxCell id="LhFVCq_YZiJixjiF2FCT-271" value="1" style="shape=partialRectangle;html=1;whiteSpace=wrap;connectable=0;fillColor=none;top=0;left=0;bottom=0;right=0;overflow=hidden;pointerEvents=1;strokeColor=inherit;fontSize=16;" parent="LhFVCq_YZiJixjiF2FCT-270" vertex="1">
                    <mxGeometry width="40" height="30" as="geometry">
                        <mxRectangle width="40" height="30" as="alternateBounds"/>
                    </mxGeometry>
                </mxCell>
                <mxCell id="LhFVCq_YZiJixjiF2FCT-272" value="Value 1" style="shape=partialRectangle;html=1;whiteSpace=wrap;connectable=0;fillColor=none;top=0;left=0;bottom=0;right=0;align=left;spacingLeft=6;overflow=hidden;strokeColor=inherit;fontSize=16;" parent="LhFVCq_YZiJixjiF2FCT-270" vertex="1">
                    <mxGeometry x="40" width="140" height="30" as="geometry">
                        <mxRectangle width="140" height="30" as="alternateBounds"/>
                    </mxGeometry>
                </mxCell>
                <mxCell id="LhFVCq_YZiJixjiF2FCT-273" value="" style="shape=tableRow;horizontal=0;startSize=0;swimlaneHead=0;swimlaneBody=0;top=0;left=0;bottom=0;right=0;collapsible=0;dropTarget=0;fillColor=none;points=[[0,0.5],[1,0.5]];portConstraint=eastwest;strokeColor=inherit;fontSize=16;" parent="LhFVCq_YZiJixjiF2FCT-269" vertex="1">
                    <mxGeometry y="60" width="180" height="30" as="geometry"/>
                </mxCell>
                <mxCell id="LhFVCq_YZiJixjiF2FCT-274" value="2" style="shape=partialRectangle;html=1;whiteSpace=wrap;connectable=0;fillColor=none;top=0;left=0;bottom=0;right=0;overflow=hidden;strokeColor=inherit;fontSize=16;" parent="LhFVCq_YZiJixjiF2FCT-273" vertex="1">
                    <mxGeometry width="40" height="30" as="geometry">
                        <mxRectangle width="40" height="30" as="alternateBounds"/>
                    </mxGeometry>
                </mxCell>
                <mxCell id="LhFVCq_YZiJixjiF2FCT-275" value="Value 2" style="shape=partialRectangle;html=1;whiteSpace=wrap;connectable=0;fillColor=none;top=0;left=0;bottom=0;right=0;align=left;spacingLeft=6;overflow=hidden;strokeColor=inherit;fontSize=16;" parent="LhFVCq_YZiJixjiF2FCT-273" vertex="1">
                    <mxGeometry x="40" width="140" height="30" as="geometry">
                        <mxRectangle width="140" height="30" as="alternateBounds"/>
                    </mxGeometry>
                </mxCell>
                <mxCell id="LhFVCq_YZiJixjiF2FCT-276" value="" style="shape=tableRow;horizontal=0;startSize=0;swimlaneHead=0;swimlaneBody=0;top=0;left=0;bottom=0;right=0;collapsible=0;dropTarget=0;fillColor=none;points=[[0,0.5],[1,0.5]];portConstraint=eastwest;strokeColor=inherit;fontSize=16;" parent="LhFVCq_YZiJixjiF2FCT-269" vertex="1">
                    <mxGeometry y="90" width="180" height="30" as="geometry"/>
                </mxCell>
                <mxCell id="LhFVCq_YZiJixjiF2FCT-277" value="3" style="shape=partialRectangle;html=1;whiteSpace=wrap;connectable=0;fillColor=none;top=0;left=0;bottom=0;right=0;overflow=hidden;strokeColor=inherit;fontSize=16;" parent="LhFVCq_YZiJixjiF2FCT-276" vertex="1">
                    <mxGeometry width="40" height="30" as="geometry">
                        <mxRectangle width="40" height="30" as="alternateBounds"/>
                    </mxGeometry>
                </mxCell>
                <mxCell id="LhFVCq_YZiJixjiF2FCT-278" value="Value 3" style="shape=partialRectangle;html=1;whiteSpace=wrap;connectable=0;fillColor=none;top=0;left=0;bottom=0;right=0;align=left;spacingLeft=6;overflow=hidden;strokeColor=inherit;fontSize=16;" parent="LhFVCq_YZiJixjiF2FCT-276" vertex="1">
                    <mxGeometry x="40" width="140" height="30" as="geometry">
                        <mxRectangle width="140" height="30" as="alternateBounds"/>
                    </mxGeometry>
                </mxCell>
                <mxCell id="LhFVCq_YZiJixjiF2FCT-279" value="Table" style="shape=table;startSize=30;container=1;collapsible=0;childLayout=tableLayout;fixedRows=1;rowLines=0;fontStyle=0;strokeColor=#C73500;fontSize=16;fillColor=#fa6800;fontColor=#000000;" parent="1" vertex="1">
                    <mxGeometry x="40" y="2930" width="180" height="120" as="geometry"/>
                </mxCell>
                <mxCell id="LhFVCq_YZiJixjiF2FCT-280" value="" style="shape=tableRow;horizontal=0;startSize=0;swimlaneHead=0;swimlaneBody=0;top=0;left=0;bottom=0;right=0;collapsible=0;dropTarget=0;fillColor=none;points=[[0,0.5],[1,0.5]];portConstraint=eastwest;strokeColor=inherit;fontSize=16;" parent="LhFVCq_YZiJixjiF2FCT-279" vertex="1">
                    <mxGeometry y="30" width="180" height="30" as="geometry"/>
                </mxCell>
                <mxCell id="LhFVCq_YZiJixjiF2FCT-281" value="1" style="shape=partialRectangle;html=1;whiteSpace=wrap;connectable=0;fillColor=none;top=0;left=0;bottom=0;right=0;overflow=hidden;pointerEvents=1;strokeColor=inherit;fontSize=16;" parent="LhFVCq_YZiJixjiF2FCT-280" vertex="1">
                    <mxGeometry width="40" height="30" as="geometry">
                        <mxRectangle width="40" height="30" as="alternateBounds"/>
                    </mxGeometry>
                </mxCell>
                <mxCell id="LhFVCq_YZiJixjiF2FCT-282" value="Value 1" style="shape=partialRectangle;html=1;whiteSpace=wrap;connectable=0;fillColor=none;top=0;left=0;bottom=0;right=0;align=left;spacingLeft=6;overflow=hidden;strokeColor=inherit;fontSize=16;" parent="LhFVCq_YZiJixjiF2FCT-280" vertex="1">
                    <mxGeometry x="40" width="140" height="30" as="geometry">
                        <mxRectangle width="140" height="30" as="alternateBounds"/>
                    </mxGeometry>
                </mxCell>
                <mxCell id="LhFVCq_YZiJixjiF2FCT-283" value="" style="shape=tableRow;horizontal=0;startSize=0;swimlaneHead=0;swimlaneBody=0;top=0;left=0;bottom=0;right=0;collapsible=0;dropTarget=0;fillColor=none;points=[[0,0.5],[1,0.5]];portConstraint=eastwest;strokeColor=inherit;fontSize=16;" parent="LhFVCq_YZiJixjiF2FCT-279" vertex="1">
                    <mxGeometry y="60" width="180" height="30" as="geometry"/>
                </mxCell>
                <mxCell id="LhFVCq_YZiJixjiF2FCT-284" value="2" style="shape=partialRectangle;html=1;whiteSpace=wrap;connectable=0;fillColor=none;top=0;left=0;bottom=0;right=0;overflow=hidden;strokeColor=inherit;fontSize=16;" parent="LhFVCq_YZiJixjiF2FCT-283" vertex="1">
                    <mxGeometry width="40" height="30" as="geometry">
                        <mxRectangle width="40" height="30" as="alternateBounds"/>
                    </mxGeometry>
                </mxCell>
                <mxCell id="LhFVCq_YZiJixjiF2FCT-285" value="Value 2" style="shape=partialRectangle;html=1;whiteSpace=wrap;connectable=0;fillColor=none;top=0;left=0;bottom=0;right=0;align=left;spacingLeft=6;overflow=hidden;strokeColor=inherit;fontSize=16;" parent="LhFVCq_YZiJixjiF2FCT-283" vertex="1">
                    <mxGeometry x="40" width="140" height="30" as="geometry">
                        <mxRectangle width="140" height="30" as="alternateBounds"/>
                    </mxGeometry>
                </mxCell>
                <mxCell id="LhFVCq_YZiJixjiF2FCT-286" value="" style="shape=tableRow;horizontal=0;startSize=0;swimlaneHead=0;swimlaneBody=0;top=0;left=0;bottom=0;right=0;collapsible=0;dropTarget=0;fillColor=none;points=[[0,0.5],[1,0.5]];portConstraint=eastwest;strokeColor=inherit;fontSize=16;" parent="LhFVCq_YZiJixjiF2FCT-279" vertex="1">
                    <mxGeometry y="90" width="180" height="30" as="geometry"/>
                </mxCell>
                <mxCell id="LhFVCq_YZiJixjiF2FCT-287" value="3" style="shape=partialRectangle;html=1;whiteSpace=wrap;connectable=0;fillColor=none;top=0;left=0;bottom=0;right=0;overflow=hidden;strokeColor=inherit;fontSize=16;" parent="LhFVCq_YZiJixjiF2FCT-286" vertex="1">
                    <mxGeometry width="40" height="30" as="geometry">
                        <mxRectangle width="40" height="30" as="alternateBounds"/>
                    </mxGeometry>
                </mxCell>
                <mxCell id="LhFVCq_YZiJixjiF2FCT-288" value="Value 3" style="shape=partialRectangle;html=1;whiteSpace=wrap;connectable=0;fillColor=none;top=0;left=0;bottom=0;right=0;align=left;spacingLeft=6;overflow=hidden;strokeColor=inherit;fontSize=16;" parent="LhFVCq_YZiJixjiF2FCT-286" vertex="1">
                    <mxGeometry x="40" width="140" height="30" as="geometry">
                        <mxRectangle width="140" height="30" as="alternateBounds"/>
                    </mxGeometry>
                </mxCell>
                <mxCell id="LhFVCq_YZiJixjiF2FCT-290" value="save" style="rounded=1;whiteSpace=wrap;html=1;arcSize=0;fillColor=#0050ef;fontColor=#ffffff;strokeColor=#001DBC;" parent="1" vertex="1">
                    <mxGeometry x="290" y="3110" width="120" height="60" as="geometry"/>
                </mxCell>
                <mxCell id="LhFVCq_YZiJixjiF2FCT-291" value="income spent" style="text;html=1;align=center;verticalAlign=middle;whiteSpace=wrap;rounded=0;" parent="1" vertex="1">
                    <mxGeometry x="70" y="3220" width="60" height="30" as="geometry"/>
                </mxCell>
                <mxCell id="LhFVCq_YZiJixjiF2FCT-292" value="" style="ellipse;shape=doubleEllipse;whiteSpace=wrap;html=1;aspect=fixed;" parent="1" vertex="1">
                    <mxGeometry x="60" y="3280" width="80" height="80" as="geometry"/>
                </mxCell>
                <mxCell id="LhFVCq_YZiJixjiF2FCT-334" value="" style="html=1;whiteSpace=wrap;shape=isoCube2;backgroundOutline=1;isoAngle=18.000106811523438;" parent="1" vertex="1">
                    <mxGeometry x="710" y="3280" width="90" height="100" as="geometry"/>
                </mxCell>
                <mxCell id="LhFVCq_YZiJixjiF2FCT-336" value="ctual vs estimae" style="text;strokeColor=none;align=center;fillColor=none;html=1;verticalAlign=middle;whiteSpace=wrap;rounded=0;" parent="1" vertex="1">
                    <mxGeometry x="740" y="3190" width="60" height="30" as="geometry"/>
                </mxCell>
                <mxCell id="LhFVCq_YZiJixjiF2FCT-339" value="" style="shape=cylinder3;whiteSpace=wrap;html=1;boundedLbl=1;backgroundOutline=1;size=26.000213623046875;" parent="1" vertex="1">
                    <mxGeometry x="80" y="3470" width="60" height="80" as="geometry"/>
                </mxCell>
                <mxCell id="LhFVCq_YZiJixjiF2FCT-340" value="distributuion" style="text;html=1;align=center;verticalAlign=middle;whiteSpace=wrap;rounded=0;" parent="1" vertex="1">
                    <mxGeometry x="60" y="3400" width="90" height="30" as="geometry"/>
                </mxCell>
                <mxCell id="156" value="search working" style="swimlane;startSize=20;horizontal=1;childLayout=flowLayout;flowOrientation=north;resizable=0;interRankCellSpacing=50;containerType=tree;fontSize=12;" parent="1" vertex="1">
                    <mxGeometry x="200" y="3980" width="200" height="472" as="geometry"/>
                </mxCell>
                <mxCell id="157" value="&lt;span style=&quot;font-size: 22px;&quot;&gt;user enters month&lt;/span&gt;" style="whiteSpace=wrap;html=1;" parent="156" vertex="1">
                    <mxGeometry x="20" y="40" width="160" height="50" as="geometry"/>
                </mxCell>
                <mxCell id="160" value="clicks enter" style="whiteSpace=wrap;html=1;" parent="156" vertex="1">
                    <mxGeometry x="50" y="141.5" width="100" height="40" as="geometry"/>
                </mxCell>
                <mxCell id="161" value="" style="html=1;rounded=1;curved=0;sourcePerimeterSpacing=0;targetPerimeterSpacing=0;startSize=6;endSize=6;noEdgeStyle=1;orthogonal=1;" parent="156" source="157" target="160" edge="1">
                    <mxGeometry relative="1" as="geometry">
                        <Array as="points">
                            <mxPoint x="100" y="103.5"/>
                            <mxPoint x="100" y="129.5"/>
                        </Array>
                    </mxGeometry>
                </mxCell>
                <mxCell id="167" value="" style="html=1;rounded=1;curved=0;sourcePerimeterSpacing=0;targetPerimeterSpacing=0;startSize=6;endSize=6;noEdgeStyle=1;orthogonal=1;" parent="156" source="160" target="168" edge="1">
                    <mxGeometry relative="1" as="geometry">
                        <mxPoint x="478" y="4381.5" as="sourcePoint"/>
                        <Array as="points">
                            <mxPoint x="100" y="193.5"/>
                            <mxPoint x="100" y="219.5"/>
                        </Array>
                    </mxGeometry>
                </mxCell>
                <mxCell id="168" value="function reads input" style="whiteSpace=wrap;html=1;" parent="156" vertex="1">
                    <mxGeometry x="50" y="231.5" width="100" height="40" as="geometry"/>
                </mxCell>
                <mxCell id="169" value="" style="html=1;rounded=1;curved=0;sourcePerimeterSpacing=0;targetPerimeterSpacing=0;startSize=6;endSize=6;noEdgeStyle=1;orthogonal=1;" parent="156" source="168" target="170" edge="1">
                    <mxGeometry relative="1" as="geometry">
                        <mxPoint x="438" y="4411.5" as="sourcePoint"/>
                        <Array as="points">
                            <mxPoint x="100" y="283.5"/>
                            <mxPoint x="100" y="309.5"/>
                        </Array>
                    </mxGeometry>
                </mxCell>
                <mxCell id="170" value="searches for the month" style="whiteSpace=wrap;html=1;" parent="156" vertex="1">
                    <mxGeometry x="50" y="321.5" width="100" height="40" as="geometry"/>
                </mxCell>
                <mxCell id="171" value="" style="html=1;rounded=1;curved=0;sourcePerimeterSpacing=0;targetPerimeterSpacing=0;startSize=6;endSize=6;noEdgeStyle=1;orthogonal=1;" parent="156" source="170" target="172" edge="1">
                    <mxGeometry relative="1" as="geometry">
                        <mxPoint x="340" y="4329" as="sourcePoint"/>
                        <Array as="points">
                            <mxPoint x="100" y="373.5"/>
                            <mxPoint x="100" y="399.5"/>
                        </Array>
                    </mxGeometry>
                </mxCell>
                <mxCell id="172" value="" style="whiteSpace=wrap;html=1;" parent="156" vertex="1">
                    <mxGeometry x="50" y="411.5" width="100" height="40" as="geometry"/>
                </mxCell>
            </root>
        </mxGraphModel>
    </diagram>
    <diagram id="HHb_7z4b_K8IAPfVhhYY" name="Page-2">
        <mxGraphModel dx="1242" dy="416" grid="1" gridSize="10" guides="1" tooltips="1" connect="1" arrows="1" fold="1" page="1" pageScale="1" pageWidth="850" pageHeight="1100" math="0" shadow="0">
            <root>
                <mxCell id="0"/>
                <mxCell id="1" parent="0"/>
            </root>
        </mxGraphModel>
    </diagram>
</mxfile>